<?xml version="1.0" encoding="UTF-8" standalone="no"?><!-- Generator: Gravit.io --><svg xmlns="http://www.w3.org/2000/svg" xmlns:xlink="http://www.w3.org/1999/xlink" style="isolation:isolate" viewBox="0 0 512 512" width="512pt" height="512pt"><defs><clipPath id="_clipPath_QACzG9SH3HhIZ4Eh5YB2YclXLzHCw44d"><rect width="512" height="512"/></clipPath></defs><g clip-path="url(#_clipPath_QACzG9SH3HhIZ4Eh5YB2YclXLzHCw44d)"><path d=" M 481.162 164.326 C 500.64 190.004 512.159 222.035 511.998 256.714 C 511.61 340.638 442.361 408 358.436 408 L 176 408 L 176 472 C 175.999 482.683 163.051 488.021 155.515 480.485 L 67.515 392.49 C 62.829 387.804 62.828 380.206 67.515 375.519 L 155.515 287.514 C 163.095 279.934 176 285.374 176 295.999 L 176 359.999 L 358.668 359.999 C 415.933 360 464.06 313.154 464 255.889 C 463.977 233.517 456.851 212.778 444.763 195.807 C 441.332 190.99 441.801 184.42 445.986 180.243 C 454.255 171.988 459.578 166.698 463.123 163.139 C 468.254 157.987 476.768 158.534 481.162 164.326 L 481.162 164.326 Z  M 48 256.111 C 47.94 198.846 96.067 152 153.332 152 L 336 152 L 336 216 C 336 226.625 348.905 232.066 356.485 224.485 L 444.485 136.48 C 449.172 131.794 449.171 124.195 444.485 119.509 L 356.485 31.514 C 348.949 23.979 336.001 29.317 336 40 L 336 104 L 153.564 104 C 69.639 104 0.389 171.362 0.002 255.286 C -0.158 289.965 11.36 321.996 30.838 347.674 C 35.232 353.466 43.746 354.013 48.877 348.862 C 52.422 345.303 57.744 340.013 66.014 331.757 C 70.199 327.579 70.667 321.009 67.237 316.193 C 55.149 299.222 48.024 278.483 48 256.111 L 48 256.111 Z " fill="rgb(255,255,255)"/></g></svg>