<?xml version="1.0" encoding="UTF-8" standalone="no"?><!-- Generator: Gravit.io --><svg xmlns="http://www.w3.org/2000/svg" xmlns:xlink="http://www.w3.org/1999/xlink" style="isolation:isolate" viewBox="0 0 386 384.002" width="386pt" height="384.002pt"><defs><clipPath id="_clipPath_hzetadMrOfJJoOnkAKXWiFsdLSIXU3vz"><rect width="386" height="384.002"/></clipPath></defs><g clip-path="url(#_clipPath_hzetadMrOfJJoOnkAKXWiFsdLSIXU3vz)"><clipPath id="_clipPath_uZ6WhfTWKEVLXYhI650R6dTTt35AXYm0"><rect x="0" y="0" width="386" height="384.002" transform="matrix(1,0,0,1,0,0)" fill="rgb(255,255,255)"/></clipPath><g clip-path="url(#_clipPath_uZ6WhfTWKEVLXYhI650R6dTTt35AXYm0)"><g><path d=" M 233.03 7.041 L 144.06 96.001 L 42 96.001 C 28.74 96.001 18 106.741 18 120.001 L 18 264.001 C 18 277.251 28.74 288.001 42 288.001 L 144.06 288.001 L 233.03 376.951 C 248.06 391.981 274 381.421 274 359.981 L 274 24.021 C 274 2.551 248.04 -7.959 233.03 7.041 L 233.03 7.041 L 233.03 7.041 L 233.03 7.041 Z " fill="rgb(255,255,255)"/><path d=" M 326.228 108.871 M 328.62 104.48 C 343.62 112.67 356.19 124.68 365.06 139.29 C 369.53 146.66 372.99 154.59 375.35 162.88 C 377.78 171.46 379.01 180.33 379 189.25 C 379.01 198.18 377.77 207.06 375.34 215.65 C 372.98 223.95 369.51 231.9 365.02 239.27 C 356.13 253.9 343.53 265.91 328.5 274.09 Q 327.43 274.66 324.375 276.156 Q 322.79 273.62 322.07 272.64 L 305.94 250.57 Q 305.06 249.36 301.844 245.344 Q 306.49 243.73 307.84 243.09 C 317.9 238.34 326.44 230.86 332.49 221.51 C 338.7 211.9 342.01 200.69 342 189.25 C 342.01 177.74 338.67 166.48 332.39 156.83 C 326.28 147.45 317.625 139.938 307.5 135.25 Q 306.13 134.61 301.844 132.625 Q 304.71 128.89 305.63 127.69 L 322.25 105.84 Q 322.97 104.89 324.813 102.438 Q 327.57 103.91 328.62 104.48 Z " fill-rule="evenodd" fill="rgb(255,255,255)"/></g></g></g></svg>